<?xml version="1.0" encoding="UTF-8"?>
<svg width="48" height="48" version="1.1" viewBox="0 0 48 48" xmlns="http://www.w3.org/2000/svg" xmlns:cc="http://creativecommons.org/ns#" xmlns:dc="http://purl.org/dc/elements/1.1/" xmlns:rdf="http://www.w3.org/1999/02/22-rdf-syntax-ns#">
 <metadata>
  <rdf:RDF>
   <cc:Work rdf:about="">
    <dc:format>image/svg+xml</dc:format>
    <dc:type rdf:resource="http://purl.org/dc/dcmitype/StillImage"/>
   </cc:Work>
  </rdf:RDF>
 </metadata>
 <g transform="matrix(.39685 0 0 .39685 -2.25 -67.615)">
  <path transform="matrix(.26458 0 0 .26458 0 164.71)" d="m106.74 50c-31.434 0-56.74 25.306-56.74 56.74v286.52c0 31.434 25.306 56.74 56.74 56.74h286.52c31.434 0 56.74-25.306 56.74-56.74v-286.52c0-31.434-25.306-56.74-56.74-56.74zm100.06 76.064c1.3139-0.0165 2.6376 0.0342 3.9648 0.15625 37.229 0.0809 74.467-0.16155 111.69 0.12305 16.93 0.79975 29.659 20.263 19.549 33.322-3.5279 9.7129-14.033 16.855-25.656 15.092l-81.547-3.4199v55.711c27.266-0.53666 54.531-1.3526 81.797-1.7129 15.652 0.63341 26.18 16.188 21.242 29.154-3.5103 11.098-16.75 17.041-28.945 15.4-24.698-0.54935-49.396-1.0991-74.094-1.6484v61.988c30.967-0.47509 61.936-1.1978 92.902-1.5176 15.821 0.71263 26.401 16.329 21.537 29.455-3.2069 10.853-15.914 16.974-27.875 15.609-39.053-0.10582-78.12 0.21358-117.16-0.16211-20.85-1.4925-37.443-19.921-35.219-38.506 0.0291-58.509-0.0586-117.02 0.043-175.53 0.37842-17.859 18.067-33.27 37.775-33.518z" fill="#ced3df"/>
 </g>
</svg>
