<?xml version="1.0" encoding="UTF-8"?>
<svg width="48" height="48" version="1.1" viewBox="0 0 48 48" xmlns="http://www.w3.org/2000/svg" xmlns:cc="http://creativecommons.org/ns#" xmlns:dc="http://purl.org/dc/elements/1.1/" xmlns:rdf="http://www.w3.org/1999/02/22-rdf-syntax-ns#">
 <metadata>
  <rdf:RDF>
   <cc:Work rdf:about="">
    <dc:format>image/svg+xml</dc:format>
    <dc:type rdf:resource="http://purl.org/dc/dcmitype/StillImage"/>
   </cc:Work>
  </rdf:RDF>
 </metadata>
 <g transform="matrix(.39685 0 0 .39685 -2.25 -67.615)">
  <path transform="matrix(.26458 0 0 .26458 0 164.71)" d="m106.74 50c-31.434 0-56.74 25.306-56.74 56.74v286.52c0 31.434 25.306 56.74 56.74 56.74h286.52c31.434 0 56.74-25.306 56.74-56.74v-286.52c0-31.434-25.306-56.74-56.74-56.74zm55.195 75.578c11.848-0.14986 20.933 6.6451 27.316 20.422 6.405 13.823 7.5538 16.479 12.469 28.801 1.974 4.95 4.2003 10.35 4.9453 12 0.74499 1.65 2.0732 4.8 2.9512 7 2.216 5.551 3.7172 9.0762 5.4062 12.701 0.79499 1.706 1.4453 3.2087 1.4453 3.3398 0 0.22499 1.9073 4.4442 6.4023 14.158 1.069 2.31 2.3829 5.2796 2.9199 6.5996 0.536 1.32 2.1547 5.2808 3.5957 8.8008 1.442 3.52 3.3436 8.2004 4.2246 10.4 2.01 5.024 6.4313 15.384 11.863 27.799 1.876 4.287 3.1143 5.623 5.4453 5.8789 3.583 0.39299 4.1205-0.37552 10.145-14.479 0.94-2.2 2.5624-5.8892 3.6074-8.1992 1.045-2.31 3.933-9.2404 6.418-15.4 6.843-16.969 7.736-19.133 8.248-20 0.259-0.44001 1.497-3.14 2.752-6 1.254-2.86 3.224-7.2708 4.375-9.8008 3.396-7.459 5.9893-13.556 7.4024-17.4 2.133-5.804 4.4037-11.315 6.4277-15.6 1.916-4.059 5.0692-11.516 6.8262-16.145 9.975-26.276 18.11-34.615 33.748-34.604 12.627 0.01 22.224 5.283 26.842 14.748l1.7578 3.5996-0.0156 5c-0.016 4.918-0.0465 5.0734-1.7285 9.4004-1.588 4.085-2.3713 5.8136-7.0723 15.6-1.552 3.23-3.1573 6.7188-8.1973 17.801-0.851 1.87-2.0823 4.7504-2.7363 6.4004-0.654 1.65-2.2954 5.4304-3.6504 8.4004-1.355 2.97-3.3364 7.47-4.4004 10-3.091 7.348-5.5445 12.813-6.3555 14.154-0.413 0.68402-2.0127 3.9442-3.5527 7.2441-1.54 3.3-4.1052 8.7912-5.7012 12.201s-5.0213 11.149-7.6133 17.199c-6.943 16.209-9.0456 20.931-12.557 28.201-4.458 9.232-5.8203 12.129-5.8203 12.387 0 0.15402-1.0965 2.6499-2.4356 5.5469-5.561 12.026-6.4317 14.001-9.3887 21.266-13.268 32.597-20.029 39.303-38.775 38.461-16.61-0.74601-20.657-5.3369-35.664-40.461-1.88-4.4-4.7727-10.88-6.4297-14.4-1.657-3.52-3.6887-8.02-4.5137-10-1.909-4.578-3.8727-8.8104-9.9277-21.4-0.9-1.87-2.286-4.9288-3.082-6.7988s-2.4023-5.6504-3.5703-8.4004c-2.12-4.99-5.2706-12.143-8.7656-19.9-1.016-2.255-2.6347-5.855-3.5957-8-0.961-2.145-2.949-6.2966-4.416-9.2266-1.468-2.93-3.0174-6.212-3.4434-7.293-0.426-1.081-1.4096-3.2266-2.1856-4.7676-1.47-2.92-2.003-4.1345-10.877-24.812-2.973-6.93-5.9227-13.591-6.5547-14.801-1.853-3.55-10.975-23.161-12.107-26.029-5.268-13.353 4.1074-27.279 20.732-30.795 2.3839-0.50391 4.6731-0.76912 6.8672-0.79688z" fill="#ced3df" style="paint-order:normal"/>
 </g>
</svg>
